<mxfile host="Electron" agent="Mozilla/5.0 (X11; Linux x86_64) AppleWebKit/537.36 (KHTML, like Gecko) draw.io/26.0.16 Chrome/132.0.6834.196 Electron/34.2.0 Safari/537.36" version="26.0.16">
  <diagram name="Strona-1" id="G_bVkfTCVGAItdBobq-T">
    <mxGraphModel dx="1290" dy="947" grid="1" gridSize="10" guides="1" tooltips="1" connect="1" arrows="1" fold="1" page="1" pageScale="1" pageWidth="827" pageHeight="1169" math="0" shadow="0">
      <root>
        <mxCell id="0" />
        <mxCell id="1" parent="0" />
        <mxCell id="XTm5AyQRwUueeaBhHqPu-9" value="Commit" style="edgeStyle=orthogonalEdgeStyle;rounded=0;orthogonalLoop=1;jettySize=auto;html=1;" edge="1" parent="1" source="XTm5AyQRwUueeaBhHqPu-1" target="XTm5AyQRwUueeaBhHqPu-7">
          <mxGeometry relative="1" as="geometry">
            <Array as="points">
              <mxPoint x="443" y="614" />
            </Array>
          </mxGeometry>
        </mxCell>
        <mxCell id="XTm5AyQRwUueeaBhHqPu-1" value="Ansible&lt;div&gt;playbook&lt;/div&gt;" style="verticalLabelPosition=middle;html=1;verticalAlign=middle;align=left;strokeColor=none;fillColor=#00BEF2;shape=mxgraph.azure.code_file;pointerEvents=1;aspect=fixed;labelPosition=right;" vertex="1" parent="1">
          <mxGeometry x="414" y="460" width="58" height="61.05" as="geometry" />
        </mxCell>
        <mxCell id="XTm5AyQRwUueeaBhHqPu-2" value="Developer" style="points=[[0.35,0,0],[0.98,0.51,0],[1,0.71,0],[0.67,1,0],[0,0.795,0],[0,0.65,0]];verticalLabelPosition=top;sketch=0;html=1;verticalAlign=bottom;aspect=fixed;align=center;pointerEvents=1;shape=mxgraph.cisco19.user;fillColor=#005073;strokeColor=none;labelPosition=center;" vertex="1" parent="1">
          <mxGeometry x="240" y="360" width="58" height="58" as="geometry" />
        </mxCell>
        <mxCell id="XTm5AyQRwUueeaBhHqPu-4" value="Administator" style="sketch=0;pointerEvents=1;shadow=0;dashed=0;html=1;strokeColor=none;fillColor=#505050;labelPosition=center;verticalLabelPosition=bottom;verticalAlign=top;outlineConnect=0;align=center;shape=mxgraph.office.users.administrator;" vertex="1" parent="1">
          <mxGeometry x="250" y="585" width="58" height="56" as="geometry" />
        </mxCell>
        <mxCell id="XTm5AyQRwUueeaBhHqPu-5" value="Development" style="edgeStyle=orthogonalEdgeStyle;rounded=0;orthogonalLoop=1;jettySize=auto;html=1;entryX=0.5;entryY=0;entryDx=0;entryDy=0;entryPerimeter=0;" edge="1" parent="1" source="XTm5AyQRwUueeaBhHqPu-2" target="XTm5AyQRwUueeaBhHqPu-1">
          <mxGeometry relative="1" as="geometry" />
        </mxCell>
        <mxCell id="XTm5AyQRwUueeaBhHqPu-6" value="Specification" style="edgeStyle=orthogonalEdgeStyle;rounded=0;orthogonalLoop=1;jettySize=auto;html=1;entryX=0.67;entryY=1;entryDx=0;entryDy=0;entryPerimeter=0;" edge="1" parent="1" source="XTm5AyQRwUueeaBhHqPu-4" target="XTm5AyQRwUueeaBhHqPu-2">
          <mxGeometry relative="1" as="geometry" />
        </mxCell>
        <mxCell id="XTm5AyQRwUueeaBhHqPu-7" value="Code repositiry" style="verticalLabelPosition=bottom;html=1;verticalAlign=top;align=center;strokeColor=none;fillColor=#00BEF2;shape=mxgraph.azure.git_repository;aspect=fixed;" vertex="1" parent="1">
          <mxGeometry x="530" y="585" width="58" height="58" as="geometry" />
        </mxCell>
        <mxCell id="XTm5AyQRwUueeaBhHqPu-15" value="Provision&lt;div&gt;Administer&lt;/div&gt;" style="edgeStyle=orthogonalEdgeStyle;rounded=0;orthogonalLoop=1;jettySize=auto;html=1;entryX=0;entryY=0.5;entryDx=0;entryDy=0;" edge="1" parent="1" source="XTm5AyQRwUueeaBhHqPu-10" target="XTm5AyQRwUueeaBhHqPu-13">
          <mxGeometry relative="1" as="geometry">
            <Array as="points">
              <mxPoint x="650" y="389" />
            </Array>
          </mxGeometry>
        </mxCell>
        <mxCell id="XTm5AyQRwUueeaBhHqPu-16" value="Provision&lt;div&gt;administer&lt;/div&gt;" style="edgeStyle=orthogonalEdgeStyle;rounded=0;orthogonalLoop=1;jettySize=auto;html=1;" edge="1" parent="1" source="XTm5AyQRwUueeaBhHqPu-10" target="XTm5AyQRwUueeaBhHqPu-12">
          <mxGeometry relative="1" as="geometry" />
        </mxCell>
        <mxCell id="XTm5AyQRwUueeaBhHqPu-10" value="Automation&lt;div&gt;Engine&lt;/div&gt;" style="verticalLabelPosition=middle;html=1;verticalAlign=middle;align=right;strokeColor=none;fillColor=#00BEF2;shape=mxgraph.azure.automation;pointerEvents=1;aspect=fixed;labelPosition=left;" vertex="1" parent="1">
          <mxGeometry x="620" y="468.03" width="58" height="52.2" as="geometry" />
        </mxCell>
        <mxCell id="XTm5AyQRwUueeaBhHqPu-11" value="Pull" style="edgeStyle=orthogonalEdgeStyle;rounded=0;orthogonalLoop=1;jettySize=auto;html=1;entryX=0.55;entryY=0.9;entryDx=0;entryDy=0;entryPerimeter=0;" edge="1" parent="1" source="XTm5AyQRwUueeaBhHqPu-7" target="XTm5AyQRwUueeaBhHqPu-10">
          <mxGeometry relative="1" as="geometry" />
        </mxCell>
        <mxCell id="XTm5AyQRwUueeaBhHqPu-12" value="Server infrastructure" style="verticalLabelPosition=bottom;html=1;verticalAlign=top;align=center;strokeColor=none;fillColor=#00BEF2;shape=mxgraph.azure.server_rack;aspect=fixed;" vertex="1" parent="1">
          <mxGeometry x="760" y="465.53" width="58" height="58" as="geometry" />
        </mxCell>
        <mxCell id="XTm5AyQRwUueeaBhHqPu-13" value="Block Storage" style="shape=rect;fillColor=#0F62FE;aspect=fixed;resizable=0;labelPosition=center;verticalLabelPosition=top;align=center;verticalAlign=bottom;strokeColor=none;fontSize=14;" vertex="1" parent="1">
          <mxGeometry x="765" y="365" width="48" height="48" as="geometry" />
        </mxCell>
        <mxCell id="XTm5AyQRwUueeaBhHqPu-14" value="" style="fillColor=#ffffff;strokeColor=none;dashed=0;outlineConnect=0;html=1;labelPosition=center;verticalLabelPosition=bottom;verticalAlign=top;part=1;movable=0;resizable=0;rotatable=0;shape=mxgraph.ibm_cloud.block-storage" vertex="1" parent="XTm5AyQRwUueeaBhHqPu-13">
          <mxGeometry width="24" height="24" relative="1" as="geometry">
            <mxPoint x="12" y="12" as="offset" />
          </mxGeometry>
        </mxCell>
      </root>
    </mxGraphModel>
  </diagram>
</mxfile>
